<?xml version="1.0" standalone="no"?>
<!DOCTYPE svg PUBLIC "-//W3C//DTD SVG 20010904//EN"
 "http://www.w3.org/TR/2001/REC-SVG-20010904/DTD/svg10.dtd">
<svg version="1.0" xmlns="http://www.w3.org/2000/svg"
 width="300.000000pt" height="300.000000pt" viewBox="0 0 300.000000 300.000000"
 preserveAspectRatio="xMidYMid meet">
<metadata>
Created by potrace 1.10, written by Peter Selinger 2001-2011
</metadata>
<g transform="translate(0.000000,300.000000) scale(0.100000,-0.100000)"
fill="#000000" stroke="none">
<path d="M1338 2751 c-122 -39 -248 -129 -307 -218 -39 -59 -40 -44 -1 23 32
57 104 125 165 157 22 11 35 22 29 24 -25 8 -126 -40 -174 -84 -69 -62 -101
-119 -107 -193 -6 -59 -7 -61 -47 -79 -86 -39 -126 -114 -126 -235 0 -70 5
-97 53 -306 23 -101 24 -105 6 -108 -11 -2 -22 -15 -25 -28 -10 -41 5 -136 28
-174 12 -19 31 -62 42 -95 18 -52 25 -60 49 -63 l27 -3 0 -103 c0 -138 23
-213 97 -312 23 -31 23 -37 21 -203 l-3 -172 -28 43 c-30 47 -34 83 -12 115
17 24 20 26 -216 -77 l-86 -37 63 134 c40 83 83 157 114 194 28 34 50 70 50
83 0 15 -19 44 -50 76 -40 42 -55 51 -74 48 -23 -5 -27 0 -46 63 -28 93 -34
94 -212 29 -79 -29 -162 -54 -186 -55 -51 -4 -87 -25 -95 -55 -5 -19 -2 -21
16 -16 36 10 308 64 359 71 42 6 48 5 62 -18 19 -29 59 -137 53 -144 -3 -2
-21 19 -42 47 -20 27 -48 53 -61 56 -13 4 -109 -1 -212 -10 -168 -14 -189 -18
-204 -37 -21 -25 -25 -78 -5 -61 14 12 248 42 329 42 64 0 70 -5 92 -79 23
-79 21 -81 -27 -27 l-43 49 -169 7 c-204 8 -206 7 -199 -87 13 -168 20 -400
13 -447 -5 -29 -22 -85 -38 -125 -30 -71 -74 -237 -85 -318 l-6 -43 1341 0
1342 0 -7 60 c-14 125 -79 313 -128 370 -29 35 -82 60 -268 128 -107 39 -270
100 -362 136 -139 53 -165 60 -153 43 26 -37 12 -102 -29 -136 -14 -12 -16 3
-16 155 l0 169 34 48 c65 91 80 139 84 275 4 120 4 122 27 122 19 0 27 10 44
55 12 31 32 77 45 103 42 84 43 202 2 202 -11 0 -11 12 2 68 8 37 15 115 16
174 1 108 11 120 25 30 l8 -47 12 45 c20 68 9 185 -24 259 -15 33 -34 66 -41
72 -11 9 -8 15 18 33 41 27 47 45 13 38 -19 -3 -41 6 -79 32 l-54 37 29 29
c20 19 29 39 29 61 l0 32 -25 -27 c-29 -31 -46 -32 -104 -6 -82 37 -102 31
-272 -90 -222 -158 -243 -172 -219 -145 l25 27 -40 -16 c-22 -9 -53 -26 -69
-37 l-28 -21 23 31 c12 17 49 52 81 77 32 26 58 49 58 51 0 10 -164 -81 -196
-109 -21 -18 -35 -26 -32 -18 11 33 131 116 273 186 173 86 226 104 310 104
70 0 100 16 121 66 19 46 18 48 -16 23 l-29 -22 -83 17 c-46 10 -91 19 -102
21 -93 18 -381 -130 -514 -264 -55 -56 -60 -54 -15 6 16 22 19 31 8 27 -20 -8
-19 5 2 28 37 41 -10 14 -67 -39 -54 -50 -59 -53 -41 -22 26 44 120 149 133
149 6 0 5 -7 -3 -17 -13 -16 -12 -17 3 -4 10 7 15 17 13 22 -9 13 92 75 166
103 36 13 101 29 144 35 43 6 80 13 83 15 2 3 -13 9 -35 15 -58 17 -181 12
-245 -8z m-374 -427 c10 -25 7 -34 -9 -27 -29 11 -104 -27 -130 -65 -14 -20
-25 -32 -25 -26 0 18 57 101 81 118 30 21 75 21 83 0z m266 -159 c83 -42 149
-56 262 -53 141 2 174 -14 262 -125 35 -45 81 -98 101 -117 l37 -35 -13 30
c-7 17 -18 37 -23 45 -6 8 0 6 13 -5 29 -25 48 -61 60 -115 9 -41 9 -41 -12
-25 -55 39 -83 54 -97 51 -8 -2 -73 -14 -143 -27 -112 -20 -130 -26 -137 -44
-16 -43 -154 -43 -170 0 -7 18 -25 24 -137 44 -70 13 -135 25 -144 27 -9 3
-39 -11 -68 -31 -28 -19 -51 -32 -51 -27 0 5 9 44 21 88 17 62 20 95 15 156
-14 173 75 238 224 163z m-255 -465 c4 -6 -7 -10 -25 -10 -18 0 -29 4 -25 10
3 6 15 10 25 10 10 0 22 -4 25 -10z m359 -14 c27 -17 28 -21 23 -72 -11 -109
-59 -155 -170 -162 -106 -7 -144 8 -170 66 -28 65 -29 158 -2 179 31 23 280
15 319 -11z m543 18 c36 -10 47 -54 33 -129 -15 -82 -41 -111 -105 -120 -57
-9 -140 -2 -177 16 -55 25 -103 176 -65 207 24 20 84 30 187 31 58 0 115 -2
127 -5z m108 -4 c4 -6 -7 -10 -25 -10 -18 0 -29 4 -25 10 3 6 15 10 25 10 10
0 22 -4 25 -10z m-498 -82 c5 -7 18 -33 28 -58 41 -100 84 -135 178 -146 125
-15 209 16 244 91 l14 30 -6 -45 c-3 -24 -17 -63 -30 -85 -13 -22 -41 -72 -60
-111 -20 -40 -49 -87 -64 -105 l-28 -33 -51 45 c-33 30 -68 51 -99 59 -59 16
-59 16 -43 35 7 8 9 22 6 31 -5 13 -15 15 -49 10 -58 -10 -95 -10 -144 -1 -35
6 -44 5 -49 -9 -3 -9 -1 -23 6 -31 16 -19 16 -19 -43 -35 -31 -8 -66 -29 -99
-59 l-51 -45 -28 34 c-16 18 -38 54 -50 79 -12 25 -37 72 -56 103 -20 32 -42
83 -49 115 -18 75 -17 111 1 53 34 -108 61 -125 200 -125 139 0 186 30 231
145 23 59 32 70 59 70 12 0 27 -6 32 -12z m-17 -450 c0 -5 -7 -8 -15 -8 -17 0
-18 2 -9 25 5 13 8 14 15 3 5 -7 9 -16 9 -20z m130 -47 c41 -8 80 -39 80 -63
0 -15 -57 -68 -73 -68 -9 0 -30 12 -47 26 -24 20 -28 29 -18 35 7 5 -29 9 -87
9 -59 0 -95 -4 -86 -9 10 -6 4 -15 -24 -37 -35 -26 -39 -27 -63 -13 -15 8 -33
27 -42 42 -14 25 -13 28 6 48 12 11 37 25 55 29 46 11 244 11 299 1z m-1096
-326 c20 -21 39 -83 34 -116 -2 -21 -10 -10 -35 52 -30 77 -30 95 1 64z"/>
<path d="M1244 2598 c-4 -7 -3 -8 4 -4 7 4 12 9 12 12 0 8 -9 4 -16 -8z"/>
<path d="M541 1703 c-12 -24 -161 -496 -158 -500 3 -3 143 57 163 69 6 4 14
31 17 60 4 29 18 100 32 158 29 119 34 192 15 214 -17 21 -57 20 -69 -1z"/>
</g>
</svg>
